<mxfile host="app.diagrams.net" modified="2023-10-31T17:43:05.117Z" agent="Mozilla/5.0 (X11; Linux x86_64) AppleWebKit/537.36 (KHTML, like Gecko) Chrome/113.0.0.0 Safari/537.36" version="22.0.8" etag="-vIDxg9PwGsUYV9ziCix" type="github">
  <diagram name="PÃ¡gina-1" id="x7K7adogdDwZ21da0Zw9">
    <mxGraphModel>
      <root>
        <mxCell id="0" />
        <mxCell id="1" parent="0" />
      </root>
    </mxGraphModel>
  </diagram>
</mxfile>
